<?xml version="1.0" encoding="UTF-8" standalone="no"?><svg xmlns="http://www.w3.org/2000/svg" xmlns:xlink="http://www.w3.org/1999/xlink" contentStyleType="text/css" height="297px" preserveAspectRatio="none" style="width:1308px;height:297px;background:#FFFFFF;" version="1.1" viewBox="0 0 1308 297" width="1308px" zoomAndPan="magnify"><defs/><g><ellipse cx="641" cy="20" fill="#222222" rx="10" ry="10" style="stroke:#222222;stroke-width:1.0;"/><rect fill="#F1F1F1" height="34.1328" rx="12.5" ry="12.5" style="stroke:#181818;stroke-width:0.5;" width="136" x="573" y="50"/><text fill="#000000" font-family="sans-serif" font-size="12" lengthAdjust="spacing" textLength="108" x="587" y="71.6016">インデックスページ</text><rect fill="none" height="192.5039" style="stroke:#000000;stroke-width:1.5;" width="1286" x="11" y="94.1328"/><path d="M77,94.1328 L77,103.6211 L67,113.6211 L11,113.6211 " fill="none" style="stroke:#000000;stroke-width:1.5;"/><text fill="#000000" font-family="sans-serif" font-size="14" lengthAdjust="spacing" textLength="56" x="14" y="108.668">ヘッダー</text><line style="stroke:#181818;stroke-width:1.5;" x1="196" x2="1217" y1="130.6211" y2="130.6211"/><rect fill="#F1F1F1" height="34.1328" rx="12.5" ry="12.5" style="stroke:#181818;stroke-width:0.5;" width="148" x="122" y="150.6211"/><text fill="#000000" font-family="sans-serif" font-size="12" lengthAdjust="spacing" textLength="120" x="136" y="172.2227">ハンバーガーメニュー</text><line style="stroke:#181818;stroke-width:1.5;" x1="146" x2="331" y1="219.7539" y2="219.7539"/><path d="M23,244.915 L23,270.2256 A0,0 0 0 0 23,270.2256 L82,270.2256 A0,0 0 0 0 82,270.2256 L82,262.915 L102,257.5703 L82,254.915 L82,254.915 L72,244.915 L23,244.915 A0,0 0 0 0 23,244.915 " fill="#FEFFDD" style="stroke:#181818;stroke-width:0.5;"/><path d="M72,244.915 L72,254.915 L82,254.915 L72,244.915 " fill="#FEFFDD" style="stroke:#181818;stroke-width:0.5;"/><text fill="#000000" font-family="sans-serif" font-size="13" lengthAdjust="spacing" textLength="38" x="29" y="262.4834">/dolls</text><rect fill="#F1F1F1" height="34.1328" rx="12.5" ry="12.5" style="stroke:#181818;stroke-width:0.5;" width="88" x="102" y="240.5039"/><text fill="#000000" font-family="sans-serif" font-size="12" lengthAdjust="spacing" textLength="60" x="116" y="262.1055">ドール一覧</text><path d="M218,244.915 L218,270.2256 A0,0 0 0 0 218,270.2256 L273,270.2256 A0,0 0 0 0 273,270.2256 L273,262.915 L293,257.5703 L273,254.915 L273,254.915 L263,244.915 L218,244.915 A0,0 0 0 0 218,244.915 " fill="#FEFFDD" style="stroke:#181818;stroke-width:0.5;"/><path d="M263,244.915 L263,254.915 L273,254.915 L263,244.915 " fill="#FEFFDD" style="stroke:#181818;stroke-width:0.5;"/><text fill="#000000" font-family="sans-serif" font-size="13" lengthAdjust="spacing" textLength="34" x="224" y="262.4834">/logs</text><rect fill="#F1F1F1" height="34.1328" rx="12.5" ry="12.5" style="stroke:#181818;stroke-width:0.5;" width="76" x="293" y="240.5039"/><text fill="#000000" font-family="sans-serif" font-size="12" lengthAdjust="spacing" textLength="48" x="307" y="262.1055">ログ一覧</text><rect fill="#F1F1F1" height="34.1328" rx="12.5" ry="12.5" style="stroke:#181818;stroke-width:0.5;" width="52" x="469" y="171.3711"/><text fill="#000000" font-family="sans-serif" font-size="12" lengthAdjust="spacing" textLength="24" x="483" y="192.9727">ロゴ</text><path d="M379,244.165 L379,269.4756 A0,0 0 0 0 379,269.4756 L407,269.4756 A0,0 0 0 0 407,269.4756 L407,262.165 L427,256.8203 L407,254.165 L407,254.165 L397,244.165 L379,244.165 A0,0 0 0 0 379,244.165 " fill="#FEFFDD" style="stroke:#181818;stroke-width:0.5;"/><path d="M397,244.165 L397,254.165 L407,254.165 L397,244.165 " fill="#FEFFDD" style="stroke:#181818;stroke-width:0.5;"/><text fill="#000000" font-family="sans-serif" font-size="13" lengthAdjust="spacing" textLength="7" x="385" y="261.7334">/</text><rect fill="#F1F1F1" height="34.1328" rx="12.5" ry="12.5" style="stroke:#181818;stroke-width:0.5;" width="136" x="427" y="239.7539"/><text fill="#000000" font-family="sans-serif" font-size="12" lengthAdjust="spacing" textLength="108" x="441" y="261.3555">インデックスページ</text><rect fill="#F1F1F1" height="34.1328" rx="12.5" ry="12.5" style="stroke:#181818;stroke-width:0.5;" width="112" x="682" y="171.3711"/><text fill="#000000" font-family="sans-serif" font-size="12" lengthAdjust="spacing" textLength="84" x="696" y="192.9727">虫眼鏡アイコン</text><path d="M575,244.165 L575,269.4756 A0,0 0 0 0 575,269.4756 L644,269.4756 A0,0 0 0 0 644,269.4756 L644,262.165 L664,256.8203 L644,254.165 L644,254.165 L634,244.165 L575,244.165 A0,0 0 0 0 575,244.165 " fill="#FEFFDD" style="stroke:#181818;stroke-width:0.5;"/><path d="M634,244.165 L634,254.165 L644,254.165 L634,244.165 " fill="#FEFFDD" style="stroke:#181818;stroke-width:0.5;"/><text fill="#000000" font-family="sans-serif" font-size="13" lengthAdjust="spacing" textLength="48" x="581" y="261.7334">/search</text><rect fill="#F1F1F1" height="34.1328" rx="12.5" ry="12.5" style="stroke:#181818;stroke-width:0.5;" width="148" x="664" y="239.7539"/><text fill="#000000" font-family="sans-serif" font-size="12" lengthAdjust="spacing" textLength="120" x="678" y="261.3555">マニューバ検索ページ</text><rect fill="#F1F1F1" height="34.1328" rx="12.5" ry="12.5" style="stroke:#181818;stroke-width:0.5;" width="112" x="936" y="171.3711"/><text fill="#000000" font-family="sans-serif" font-size="12" lengthAdjust="spacing" textLength="84" x="950" y="192.9727">ハートアイコン</text><path d="M822,244.165 L822,269.4756 A0,0 0 0 0 822,269.4756 L898,269.4756 A0,0 0 0 0 898,269.4756 L898,262.165 L918,256.8203 L898,254.165 L898,254.165 L888,244.165 L822,244.165 A0,0 0 0 0 822,244.165 " fill="#FEFFDD" style="stroke:#181818;stroke-width:0.5;"/><path d="M888,244.165 L888,254.165 L898,254.165 L888,244.165 " fill="#FEFFDD" style="stroke:#181818;stroke-width:0.5;"/><text fill="#000000" font-family="sans-serif" font-size="13" lengthAdjust="spacing" textLength="55" x="828" y="261.7334">/favorite</text><rect fill="#F1F1F1" height="34.1328" rx="12.5" ry="12.5" style="stroke:#181818;stroke-width:0.5;" width="148" x="918" y="239.7539"/><text fill="#000000" font-family="sans-serif" font-size="12" lengthAdjust="spacing" textLength="120" x="932" y="261.3555">お気に入り一覧ページ</text><rect fill="#F1F1F1" height="34.1328" rx="12.5" ry="12.5" style="stroke:#181818;stroke-width:0.5;" width="136" x="1149" y="171.3711"/><text fill="#000000" font-family="sans-serif" font-size="12" lengthAdjust="spacing" textLength="108" x="1163" y="192.9727">アカウントアイコン</text><path d="M1076,244.165 L1076,269.4756 A0,0 0 0 0 1076,269.4756 L1153,269.4756 A0,0 0 0 0 1153,269.4756 L1153,262.165 L1173,256.8203 L1153,254.165 L1153,254.165 L1143,244.165 L1076,244.165 A0,0 0 0 0 1076,244.165 " fill="#FEFFDD" style="stroke:#181818;stroke-width:0.5;"/><path d="M1143,244.165 L1143,254.165 L1153,254.165 L1143,244.165 " fill="#FEFFDD" style="stroke:#181818;stroke-width:0.5;"/><text fill="#000000" font-family="sans-serif" font-size="13" lengthAdjust="spacing" textLength="56" x="1082" y="261.7334">/mypage</text><rect fill="#F1F1F1" height="34.1328" rx="12.5" ry="12.5" style="stroke:#181818;stroke-width:0.5;" width="88" x="1173" y="239.7539"/><text fill="#000000" font-family="sans-serif" font-size="12" lengthAdjust="spacing" textLength="60" x="1187" y="261.3555">マイページ</text><line style="stroke:#181818;stroke-width:1.0;" x1="641" x2="641" y1="30" y2="50"/><polygon fill="#181818" points="637,40,641,50,645,40,641,44" style="stroke:#181818;stroke-width:1.0;"/><line style="stroke:#181818;stroke-width:1.0;" x1="146" x2="146" y1="221.2539" y2="240.5039"/><polygon fill="#181818" points="142,230.5039,146,240.5039,150,230.5039,146,234.5039" style="stroke:#181818;stroke-width:1.0;"/><line style="stroke:#181818;stroke-width:1.0;" x1="331" x2="331" y1="221.2539" y2="240.5039"/><polygon fill="#181818" points="327,230.5039,331,240.5039,335,230.5039,331,234.5039" style="stroke:#181818;stroke-width:1.0;"/><line style="stroke:#181818;stroke-width:1.0;" x1="196" x2="196" y1="184.7539" y2="219.7539"/><polygon fill="#181818" points="192,209.7539,196,219.7539,200,209.7539,196,213.7539" style="stroke:#181818;stroke-width:1.0;"/><line style="stroke:#181818;stroke-width:1.0;" x1="495" x2="495" y1="205.5039" y2="239.7539"/><polygon fill="#181818" points="491,229.7539,495,239.7539,499,229.7539,495,233.7539" style="stroke:#181818;stroke-width:1.0;"/><line style="stroke:#181818;stroke-width:1.0;" x1="738" x2="738" y1="205.5039" y2="239.7539"/><polygon fill="#181818" points="734,229.7539,738,239.7539,742,229.7539,738,233.7539" style="stroke:#181818;stroke-width:1.0;"/><line style="stroke:#181818;stroke-width:1.0;" x1="992" x2="992" y1="205.5039" y2="239.7539"/><polygon fill="#181818" points="988,229.7539,992,239.7539,996,229.7539,992,233.7539" style="stroke:#181818;stroke-width:1.0;"/><line style="stroke:#181818;stroke-width:1.0;" x1="1217" x2="1217" y1="205.5039" y2="239.7539"/><polygon fill="#181818" points="1213,229.7539,1217,239.7539,1221,229.7539,1217,233.7539" style="stroke:#181818;stroke-width:1.0;"/><line style="stroke:#181818;stroke-width:1.0;" x1="196" x2="196" y1="132.1211" y2="150.6211"/><polygon fill="#181818" points="192,140.6211,196,150.6211,200,140.6211,196,144.6211" style="stroke:#181818;stroke-width:1.0;"/><line style="stroke:#181818;stroke-width:1.0;" x1="495" x2="495" y1="132.1211" y2="171.3711"/><polygon fill="#181818" points="491,161.3711,495,171.3711,499,161.3711,495,165.3711" style="stroke:#181818;stroke-width:1.0;"/><line style="stroke:#181818;stroke-width:1.0;" x1="738" x2="738" y1="132.1211" y2="171.3711"/><polygon fill="#181818" points="734,161.3711,738,171.3711,742,161.3711,738,165.3711" style="stroke:#181818;stroke-width:1.0;"/><line style="stroke:#181818;stroke-width:1.0;" x1="992" x2="992" y1="132.1211" y2="171.3711"/><polygon fill="#181818" points="988,161.3711,992,171.3711,996,161.3711,992,165.3711" style="stroke:#181818;stroke-width:1.0;"/><line style="stroke:#181818;stroke-width:1.0;" x1="1217" x2="1217" y1="132.1211" y2="171.3711"/><polygon fill="#181818" points="1213,161.3711,1217,171.3711,1221,161.3711,1217,165.3711" style="stroke:#181818;stroke-width:1.0;"/><line style="stroke:#181818;stroke-width:1.0;" x1="641" x2="641" y1="84.1328" y2="130.6211"/><polygon fill="#181818" points="637,120.6211,641,130.6211,645,120.6211,641,124.6211" style="stroke:#181818;stroke-width:1.0;"/><!--MD5=[a48164a5bffdfe517187e63c000e23aa]
@startuml name screen-transition
start
: インデックスページ ;
partition ヘッダー {
    split 
        : ハンバーガーメニュー ;
        split
            : ドール一覧 ;
            note
                /dolls
            end note
            detach
        split again
            : ログ一覧 ;
            note
                /logs
            end note
            detach
        end split
    split again
        : ロゴ ;
            : インデックスページ ;
            note
                /
            end note
            detach
    split again
        : 虫眼鏡アイコン ;
            : マニューバ検索ページ ;
            note
                /search
            end note
            detach
    split again
        : ハートアイコン ;
            : お気に入り一覧ページ ;
            note
                /favorite
            end note
            detach
    split again
        : アカウントアイコン ;
            : マイページ ;
            note
                /mypage
            end note
            detach
    end split
}
@enduml

PlantUML version 1.2022.7(Tue Aug 23 02:01:30 JST 2022)
(GPL source distribution)
Java Runtime: OpenJDK Runtime Environment
JVM: OpenJDK 64-Bit Server VM
Default Encoding: UTF-8
Language: ja
Country: JP
--></g></svg>